<?xml version="1.0" encoding="UTF-8" ?>
<!DOCTYPE svg PUBLIC "-//W3C//DTD SVG 1.1//EN" "http://www.w3.org/Graphics/SVG/1.1/DTD/svg11.dtd">
<svg width="62pt" height="62pt" viewBox="0 0 62 62" version="1.1" xmlns="http://www.w3.org/2000/svg">
<g id="#fefffbff">
<path fill="#fefffb" opacity="1.00" d=" M 30.57 47.29 C 16.46 40.92 20.61 24.66 31.97 17.87 C 43.95 23.95 47.38 40.81 34.66 48.17 C 31.33 41.79 38.97 36.96 38.90 30.63 C 37.28 32.01 36.19 33.90 34.55 35.27 C 33.75 32.01 33.48 28.66 33.54 25.31 C 33.11 25.35 32.23 25.42 31.79 25.45 C 31.67 29.44 30.00 33.22 30.33 37.25 C 28.41 35.21 26.95 32.80 25.61 30.37 C 24.73 36.51 31.92 40.89 30.57 47.29 Z" />
</g>
<g id="#32834bff">
<path fill="#32834b" opacity="1.00" d=" M 30.65 11.49 C 45.14 9.86 57.86 24.89 53.92 38.92 C 49.38 62.80 11.29 60.18 9.66 36.04 C 8.40 23.97 18.16 11.52 30.65 11.49 M 30.57 47.29 C 31.92 40.89 24.73 36.51 25.61 30.37 C 26.95 32.80 28.41 35.21 30.33 37.25 C 30.00 33.22 31.67 29.44 31.79 25.45 C 32.23 25.42 33.11 25.35 33.54 25.31 C 33.48 28.66 33.75 32.01 34.55 35.27 C 36.19 33.90 37.28 32.01 38.90 30.63 C 38.97 36.96 31.33 41.79 34.66 48.17 C 47.38 40.81 43.95 23.95 31.97 17.87 C 20.61 24.66 16.46 40.92 30.57 47.29 Z" />
</g>
</svg>
